<svg width="966" height="284" viewBox="0 0 966 284" fill="none" xmlns="http://www.w3.org/2000/svg">
<g clip-path="url(#clip0)">
<ellipse cx="175.671" cy="137.159" rx="110" ry="110" stroke="#6FCF97" stroke-width="10"/>
<ellipse cx="178.671" cy="137.159" rx="110" ry="110" stroke="black" stroke-width="4"/>
<g filter="url(#filter0_d)">
<path d="M105.751 123.079C162.47 116.733 171.38 134.637 172.708 149.754C141.475 161.682 131.256 146.371 105.751 123.079Z" fill="#3E3E3E"/>
<path d="M168.042 232.737C159.058 224.859 140.889 197.22 172.296 149.481C168.894 159.501 153.095 192.112 170.213 231.927L169.097 232.052L168.042 232.737Z" fill="#3E3E3E"/>
<path d="M170.639 150.917C189.015 126.852 218.696 145.54 229.111 157.918C198.342 174.34 181.736 164.911 170.639 150.917Z" fill="#3E3E3E"/>
<g filter="url(#filter1_d)">
<path d="M220.82 154.613C221.971 156.234 217.877 157.026 217.203 157.175C215.403 157.573 212.303 156.983 211.152 155.362C210 153.741 211.452 151.839 213.033 151.304C214.615 150.769 219.668 152.991 220.82 154.613Z" fill="#D5FCFF"/>
</g>
</g>
<g filter="url(#filter2_d)">
<path d="M109.751 120.079C166.47 113.733 175.38 131.637 176.708 146.754C145.475 158.682 135.256 143.371 109.751 120.079Z" fill="#6FCF97"/>
<path d="M172.042 229.737C163.058 221.859 144.889 194.22 176.296 146.481C172.894 156.501 157.095 189.112 174.213 228.927L173.097 229.052L172.042 229.737Z" fill="#6FCF97"/>
<path d="M174.639 147.917C193.015 123.852 222.696 142.54 233.111 154.918C202.342 171.34 185.736 161.911 174.639 147.917Z" fill="#8CC9CD"/>
<g filter="url(#filter3_d)">
<path d="M224.82 151.613C225.971 153.234 221.877 154.026 221.203 154.175C219.403 154.573 216.303 153.983 215.152 152.362C214 150.741 215.452 148.839 217.033 148.304C218.615 147.769 223.668 149.991 224.82 151.613Z" fill="#D5FCFF"/>
</g>
</g>
<circle cx="255.47" cy="178.182" r="5" transform="rotate(-5 255.47 178.182)" fill="black"/>
<circle cx="98.0417" cy="101.042" r="5" transform="rotate(-5 98.0417 101.042)" fill="black"/>
<path d="M113.167 73.2743L119.191 82.9142L124.094 79.8506C125.408 79.0295 126.241 77.8564 126.593 76.3313C126.945 74.8062 126.704 73.3756 125.869 72.0395C125.048 70.7255 123.871 69.8869 122.339 69.5238C120.807 69.1606 119.384 69.3896 118.07 70.2107L113.167 73.2743ZM124.293 96.9762L109.379 73.1083L111.511 70.6242L116.364 67.5916C118.407 66.3151 120.596 65.9606 122.931 66.5281C125.296 67.0928 127.12 68.4021 128.403 70.456C129.7 72.5319 130.083 74.7417 129.551 77.0852C129.016 79.4467 127.732 81.2622 125.7 82.5318L120.847 85.5644L126.219 94.1608L124.293 96.9762Z" fill="black"/>
<path d="M152.314 69.0963L154.891 66.8617L155.356 68.3535C155.96 70.2929 155.791 72.1593 154.85 73.9527C153.908 75.7461 152.468 76.9448 150.528 77.5489C148.589 78.1529 146.716 77.9861 144.91 77.0484C143.105 76.1107 141.9 74.6722 141.296 72.7328L135.11 52.873L137.687 50.6384L144.262 71.7476C144.647 72.896 145.343 73.7293 146.35 74.2476C147.389 74.783 148.506 74.8648 149.699 74.4931C150.743 74.1679 151.526 73.4606 152.045 72.3713C152.565 71.282 152.655 70.1903 152.314 69.0963Z" fill="black"/>
<path d="M167.142 63.3059C167.139 63.7355 167.305 64.1794 167.641 64.6375C168.26 65.4752 169.253 65.8988 170.62 65.9083C171.454 65.9141 172.191 65.724 172.831 65.3378L173.983 68.2951C172.963 68.8219 171.835 69.0809 170.598 69.0723C168.645 69.0587 166.918 68.3305 165.418 66.8877C164.41 65.8389 163.91 64.6375 163.92 63.2834C163.92 63.2313 163.92 63.1792 163.921 63.1271C163.938 60.6923 165.193 58.9757 167.687 57.9775L175.659 54.7714C175.668 53.5344 175.265 52.4964 174.45 51.6574C173.636 50.8053 172.604 50.3749 171.354 50.3662C170.26 50.3586 169.294 50.762 168.455 51.5764C167.642 52.3651 167.218 53.3647 167.184 54.5755L167.182 54.8489L164.047 56.2138L164.059 54.4951C164.072 52.6722 164.865 50.9329 166.439 49.2772C167.777 47.8802 169.462 47.1888 171.493 47.203C173.524 47.2172 175.251 47.9454 176.673 49.3877C178.096 50.8299 178.8 52.5667 178.785 54.5979L178.694 67.7616L175.559 69.1069L175.635 58.1892L169.191 60.7615C167.833 61.3901 167.15 62.2382 167.142 63.3059Z" fill="black"/>
<path d="M190.713 69.7575L194.006 55.6044C194.467 53.626 195.557 52.1016 197.277 51.0312C198.996 49.9608 200.845 49.6558 202.824 50.1162C204.802 50.5766 206.333 51.6681 207.416 53.3907C208.499 55.1133 208.81 56.9638 208.35 58.9422L205.366 71.7637L202.013 72.387L205.293 58.291C205.542 57.1056 205.363 56.0347 204.757 55.0781C204.131 54.0903 203.267 53.468 202.163 53.2112C201.022 52.9456 199.945 53.1227 198.932 53.7425C197.937 54.3399 197.31 55.1967 197.05 56.3127C197.044 56.338 197.04 56.3571 197.037 56.3697L194.066 69.1341L190.713 69.7575Z" fill="black"/>
<path d="M227.97 78.2893C227.97 78.2893 229.095 78.4509 231.346 78.7741L230.523 80.1021C229.453 81.8284 227.931 82.9229 225.959 83.3854C223.987 83.8479 222.138 83.544 220.412 82.4736C218.685 81.4033 217.585 79.8786 217.112 77.8997C216.638 75.9208 216.937 74.0682 218.007 72.3418L223.812 62.9797L221.753 61.7035L224.562 59.768L225.458 60.3238L228.968 54.6634L232.344 55.1482L228.114 61.9705L236.547 67.1989L233.738 69.1344L226.468 64.6265L220.694 73.9388C220.071 74.9927 219.897 76.0644 220.171 77.1538C220.458 78.2969 221.083 79.167 222.046 79.7639C223.031 80.3746 224.102 80.5488 225.261 80.2866C226.394 80.0396 227.298 79.3738 227.97 78.2893Z" fill="black"/>
<path d="M230.781 96.5439L251.588 78.7729L254.657 80.2612L257.853 84.0038C259.181 85.5583 259.766 87.336 259.609 89.337C259.451 91.338 258.689 92.9219 257.323 94.0889C255.778 95.4081 254.014 95.9989 252.03 95.8612L251.865 95.8482C252 96.5885 252.032 97.3667 251.958 98.1829C251.76 100.578 250.731 102.57 248.869 104.16C247.028 105.733 244.895 106.433 242.47 106.261C240.072 106.1 238.091 105.103 236.527 103.272L230.781 96.5439ZM235.186 96.8906L238.941 101.287C239.947 102.465 241.236 103.111 242.806 103.226C244.376 103.34 245.75 102.894 246.929 101.888C248.127 100.864 248.787 99.5726 248.91 98.0123C249.033 96.4519 248.591 95.0826 247.585 93.9043L247.09 93.3251L243.83 89.5082L235.186 96.8906ZM249.428 91.251C250.301 92.2525 251.206 92.7809 252.143 92.8362C253.293 92.899 254.298 92.5625 255.16 91.8268C255.209 91.7845 255.264 91.738 255.323 91.6873C256.036 91.0784 256.409 90.2119 256.442 89.0878C256.498 87.91 256.163 86.877 255.439 85.9888L252.281 82.2907L246.206 87.4787L249.428 91.251Z" fill="black"/>
<path d="M254.25 117.812C253.123 118.218 252.327 118.968 251.863 120.062C251.391 121.173 251.347 122.261 251.731 123.327C252.101 124.356 252.814 125.124 253.868 125.63C254.889 126.121 255.973 126.173 257.121 125.787L263.774 123.392C264.904 122.958 265.706 122.226 266.18 121.198C266.67 120.136 266.703 119.017 266.279 117.84C265.909 116.811 265.199 116.05 264.149 115.556C263.116 115.07 262.07 115.01 261.012 115.377L260.902 115.417L254.25 117.812ZM259.899 112.457C261.81 111.769 263.682 111.856 265.515 112.719C267.347 113.581 268.608 114.968 269.296 116.879C269.984 118.79 269.899 120.668 269.041 122.513C268.183 124.358 266.798 125.625 264.887 126.313L258.125 128.748C256.213 129.436 254.339 129.342 252.502 128.468C250.665 127.593 249.402 126.2 248.714 124.289C248.026 122.378 248.113 120.506 248.976 118.673C249.838 116.84 251.225 115.58 253.136 114.892L259.899 112.457Z" fill="black"/>
<path d="M270.909 140.851L272.232 143.646L263.583 149.605L272.041 155.812L270.631 158.564L261.209 151.521L251.492 158.283L250.17 155.41L258.779 149.529L250.359 143.38L251.77 140.57L261.23 147.653L270.909 140.851Z" fill="black"/>
<path d="M371.758 107.012V141.113H389.102C393.75 141.113 397.734 139.453 401.055 136.133C404.375 132.812 406.035 128.789 406.035 124.062C406.035 119.414 404.375 115.41 401.055 112.051C397.734 108.691 393.75 107.012 389.102 107.012H371.758ZM362.383 185V100.566L371.758 97.6367H388.926C396.152 97.6367 402.285 100.215 407.324 105.371C412.441 110.566 415 116.797 415 124.062C415 131.406 412.461 137.637 407.383 142.754C402.266 147.91 396.113 150.488 388.926 150.488H371.758V180.898L362.383 185ZM468.789 162.383L478.164 158.281V162.969C478.164 169.062 476.016 174.258 471.719 178.555C467.422 182.852 462.227 185 456.133 185C450.039 185 444.824 182.852 440.488 178.555C436.152 174.258 433.984 169.062 433.984 162.969V100.566L443.359 96.4648V162.793C443.438 166.426 444.688 169.434 447.109 171.816C449.609 174.277 452.734 175.508 456.484 175.508C459.766 175.508 462.637 174.18 465.098 171.523C467.559 168.867 468.789 165.82 468.789 162.383ZM510.801 167.773C510.801 169.062 511.309 170.391 512.324 171.758C514.199 174.258 517.188 175.508 521.289 175.508C523.789 175.508 525.996 174.922 527.91 173.75L531.426 182.598C528.379 184.199 525 185 521.289 185C515.43 185 510.234 182.852 505.703 178.555C502.656 175.43 501.133 171.836 501.133 167.773C501.133 167.617 501.133 167.461 501.133 167.305C501.133 160 504.863 154.824 512.324 151.777L536.172 141.992C536.172 138.281 534.941 135.176 532.48 132.676C530.02 130.137 526.914 128.867 523.164 128.867C519.883 128.867 516.992 130.098 514.492 132.559C512.07 134.941 510.82 137.949 510.742 141.582V142.402L501.367 146.562V141.406C501.367 135.938 503.711 130.703 508.398 125.703C512.383 121.484 517.422 119.375 523.516 119.375C529.609 119.375 534.805 121.523 539.102 125.82C543.398 130.117 545.547 135.312 545.547 141.406V180.898L536.172 185V152.246L516.895 160.098C512.832 162.012 510.801 164.57 510.801 167.773ZM568.75 185V141.406C568.75 135.312 570.898 130.117 575.195 125.82C579.492 121.523 584.688 119.375 590.781 119.375C596.875 119.375 602.09 121.523 606.426 125.82C610.762 130.117 612.93 135.312 612.93 141.406V180.898L603.555 185V141.582C603.477 137.949 602.227 134.941 599.805 132.559C597.305 130.098 594.355 128.867 590.957 128.867C587.441 128.867 584.414 130.117 581.875 132.617C579.375 135.039 578.125 137.969 578.125 141.406C578.125 141.484 578.125 141.543 578.125 141.582V180.898L568.75 185ZM670.938 162.383C670.938 162.383 674.062 161.016 680.312 158.281V162.969C680.312 169.062 678.164 174.258 673.867 178.555C669.57 182.852 664.375 185 658.281 185C652.188 185 646.973 182.852 642.637 178.555C638.301 174.258 636.133 169.062 636.133 162.969V129.922H628.867L632.969 120.547H636.133V100.566L645.508 96.4648V120.547H675.273L671.172 129.922H645.508V162.793C645.586 166.465 646.836 169.473 649.258 171.816C651.797 174.277 654.766 175.508 658.164 175.508C661.641 175.508 664.648 174.258 667.188 171.758C669.688 169.336 670.938 166.211 670.938 162.383ZM699.297 183.828V101.738L708.672 97.6367H723.438C729.57 97.6367 734.766 99.7656 739.023 104.023C743.281 108.281 745.41 113.105 745.41 118.496C745.41 124.59 743.32 129.766 739.141 134.023L738.789 134.375C740.742 135.508 742.578 136.953 744.297 138.711C749.375 143.828 751.914 150.059 751.914 157.402C751.914 164.668 749.355 170.898 744.238 176.094C739.199 181.25 733.066 183.828 725.84 183.828H699.297ZM708.672 174.453H726.016C730.664 174.453 734.648 172.773 737.969 169.414C741.289 166.055 742.949 162.051 742.949 157.402C742.949 152.676 741.289 148.652 737.969 145.332C734.648 142.012 730.664 140.352 726.016 140.352H723.73H708.672V174.453ZM723.555 130.977C727.539 130.938 730.508 129.902 732.461 127.871C734.844 125.371 736.035 122.422 736.035 119.023C736.035 118.828 736.035 118.613 736.035 118.379C736.035 115.566 734.785 113.027 732.285 110.762C729.707 108.34 726.699 107.09 723.262 107.012H708.672V130.977H723.555ZM780.273 162.793C780.273 166.387 781.582 169.395 784.199 171.816C786.855 174.277 789.883 175.508 793.281 175.508C796.562 175.508 799.453 174.277 801.953 171.816C804.375 169.434 805.625 166.426 805.703 162.793V141.582C805.625 137.949 804.375 134.941 801.953 132.559C799.453 130.098 796.328 128.867 792.578 128.867C789.297 128.867 786.426 130.098 783.965 132.559C781.543 134.98 780.312 137.871 780.273 141.23V141.582V162.793ZM770.898 141.406C770.898 135.312 773.047 130.117 777.344 125.82C781.641 121.523 786.836 119.375 792.93 119.375C799.023 119.375 804.238 121.523 808.574 125.82C812.91 130.117 815.078 135.312 815.078 141.406V162.969C815.078 169.062 812.91 174.258 808.574 178.555C804.238 182.852 799.023 185 792.93 185C786.836 185 781.641 182.852 777.344 178.555C773.047 174.258 770.898 169.062 770.898 162.969V141.406ZM833.77 123.477L842.09 119.375L860.371 145.039L878.594 119.375L886.914 123.477L866.23 152.07L886.973 180.898L878.418 185L860.371 159.453L842.324 185L833.828 180.898L854.629 152.188L833.77 123.477Z" fill="#6FCF97"/>
<path d="M377.758 107.012V141.113H395.102C399.75 141.113 403.734 139.453 407.055 136.133C410.375 132.812 412.035 128.789 412.035 124.062C412.035 119.414 410.375 115.41 407.055 112.051C403.734 108.691 399.75 107.012 395.102 107.012H377.758ZM368.383 185V100.566L377.758 97.6367H394.926C402.152 97.6367 408.285 100.215 413.324 105.371C418.441 110.566 421 116.797 421 124.062C421 131.406 418.461 137.637 413.383 142.754C408.266 147.91 402.113 150.488 394.926 150.488H377.758V180.898L368.383 185ZM474.789 162.383L484.164 158.281V162.969C484.164 169.062 482.016 174.258 477.719 178.555C473.422 182.852 468.227 185 462.133 185C456.039 185 450.824 182.852 446.488 178.555C442.152 174.258 439.984 169.062 439.984 162.969V100.566L449.359 96.4648V162.793C449.438 166.426 450.688 169.434 453.109 171.816C455.609 174.277 458.734 175.508 462.484 175.508C465.766 175.508 468.637 174.18 471.098 171.523C473.559 168.867 474.789 165.82 474.789 162.383ZM516.801 167.773C516.801 169.062 517.309 170.391 518.324 171.758C520.199 174.258 523.188 175.508 527.289 175.508C529.789 175.508 531.996 174.922 533.91 173.75L537.426 182.598C534.379 184.199 531 185 527.289 185C521.43 185 516.234 182.852 511.703 178.555C508.656 175.43 507.133 171.836 507.133 167.773C507.133 167.617 507.133 167.461 507.133 167.305C507.133 160 510.863 154.824 518.324 151.777L542.172 141.992C542.172 138.281 540.941 135.176 538.48 132.676C536.02 130.137 532.914 128.867 529.164 128.867C525.883 128.867 522.992 130.098 520.492 132.559C518.07 134.941 516.82 137.949 516.742 141.582V142.402L507.367 146.562V141.406C507.367 135.938 509.711 130.703 514.398 125.703C518.383 121.484 523.422 119.375 529.516 119.375C535.609 119.375 540.805 121.523 545.102 125.82C549.398 130.117 551.547 135.312 551.547 141.406V180.898L542.172 185V152.246L522.895 160.098C518.832 162.012 516.801 164.57 516.801 167.773ZM574.75 185V141.406C574.75 135.312 576.898 130.117 581.195 125.82C585.492 121.523 590.688 119.375 596.781 119.375C602.875 119.375 608.09 121.523 612.426 125.82C616.762 130.117 618.93 135.312 618.93 141.406V180.898L609.555 185V141.582C609.477 137.949 608.227 134.941 605.805 132.559C603.305 130.098 600.355 128.867 596.957 128.867C593.441 128.867 590.414 130.117 587.875 132.617C585.375 135.039 584.125 137.969 584.125 141.406C584.125 141.484 584.125 141.543 584.125 141.582V180.898L574.75 185ZM676.938 162.383C676.938 162.383 680.062 161.016 686.312 158.281V162.969C686.312 169.062 684.164 174.258 679.867 178.555C675.57 182.852 670.375 185 664.281 185C658.188 185 652.973 182.852 648.637 178.555C644.301 174.258 642.133 169.062 642.133 162.969V129.922H634.867L638.969 120.547H642.133V100.566L651.508 96.4648V120.547H681.273L677.172 129.922H651.508V162.793C651.586 166.465 652.836 169.473 655.258 171.816C657.797 174.277 660.766 175.508 664.164 175.508C667.641 175.508 670.648 174.258 673.188 171.758C675.688 169.336 676.938 166.211 676.938 162.383ZM705.297 183.828V101.738L714.672 97.6367H729.438C735.57 97.6367 740.766 99.7656 745.023 104.023C749.281 108.281 751.41 113.105 751.41 118.496C751.41 124.59 749.32 129.766 745.141 134.023L744.789 134.375C746.742 135.508 748.578 136.953 750.297 138.711C755.375 143.828 757.914 150.059 757.914 157.402C757.914 164.668 755.355 170.898 750.238 176.094C745.199 181.25 739.066 183.828 731.84 183.828H705.297ZM714.672 174.453H732.016C736.664 174.453 740.648 172.773 743.969 169.414C747.289 166.055 748.949 162.051 748.949 157.402C748.949 152.676 747.289 148.652 743.969 145.332C740.648 142.012 736.664 140.352 732.016 140.352H729.73H714.672V174.453ZM729.555 130.977C733.539 130.938 736.508 129.902 738.461 127.871C740.844 125.371 742.035 122.422 742.035 119.023C742.035 118.828 742.035 118.613 742.035 118.379C742.035 115.566 740.785 113.027 738.285 110.762C735.707 108.34 732.699 107.09 729.262 107.012H714.672V130.977H729.555ZM786.273 162.793C786.273 166.387 787.582 169.395 790.199 171.816C792.855 174.277 795.883 175.508 799.281 175.508C802.562 175.508 805.453 174.277 807.953 171.816C810.375 169.434 811.625 166.426 811.703 162.793V141.582C811.625 137.949 810.375 134.941 807.953 132.559C805.453 130.098 802.328 128.867 798.578 128.867C795.297 128.867 792.426 130.098 789.965 132.559C787.543 134.98 786.312 137.871 786.273 141.23V141.582V162.793ZM776.898 141.406C776.898 135.312 779.047 130.117 783.344 125.82C787.641 121.523 792.836 119.375 798.93 119.375C805.023 119.375 810.238 121.523 814.574 125.82C818.91 130.117 821.078 135.312 821.078 141.406V162.969C821.078 169.062 818.91 174.258 814.574 178.555C810.238 182.852 805.023 185 798.93 185C792.836 185 787.641 182.852 783.344 178.555C779.047 174.258 776.898 169.062 776.898 162.969V141.406ZM839.77 123.477L848.09 119.375L866.371 145.039L884.594 119.375L892.914 123.477L872.23 152.07L892.973 180.898L884.418 185L866.371 159.453L848.324 185L839.828 180.898L860.629 152.188L839.77 123.477Z" fill="#3E3E3E"/>
</g>
<defs>
<filter id="filter0_d" x="101.708" y="111.128" width="131.403" height="129.608" filterUnits="userSpaceOnUse" color-interpolation-filters="sRGB">
<feFlood flood-opacity="0" result="BackgroundImageFix"/>
<feColorMatrix in="SourceAlpha" type="matrix" values="0 0 0 0 0 0 0 0 0 0 0 0 0 0 0 0 0 0 127 0"/>
<feOffset dy="4"/>
<feGaussianBlur stdDeviation="2"/>
<feColorMatrix type="matrix" values="0 0 0 0 0 0 0 0 0 0 0 0 0 0 0 0 0 0 0.25 0"/>
<feBlend mode="normal" in2="BackgroundImageFix" result="effect1_dropShadow"/>
<feBlend mode="normal" in="SourceGraphic" in2="effect1_dropShadow" result="shape"/>
</filter>
<filter id="filter1_d" x="208.737" y="150.223" width="14.2853" height="10.0722" filterUnits="userSpaceOnUse" color-interpolation-filters="sRGB">
<feFlood flood-opacity="0" result="BackgroundImageFix"/>
<feColorMatrix in="SourceAlpha" type="matrix" values="0 0 0 0 0 0 0 0 0 0 0 0 0 0 0 0 0 0 127 0"/>
<feOffset dy="1"/>
<feGaussianBlur stdDeviation="1"/>
<feColorMatrix type="matrix" values="0 0 0 0 0 0 0 0 0 0 0 0 0 0 0 0 0 0 0.1 0"/>
<feBlend mode="normal" in2="BackgroundImageFix" result="effect1_dropShadow"/>
<feBlend mode="normal" in="SourceGraphic" in2="effect1_dropShadow" result="shape"/>
</filter>
<filter id="filter2_d" x="105.708" y="108.128" width="131.403" height="129.608" filterUnits="userSpaceOnUse" color-interpolation-filters="sRGB">
<feFlood flood-opacity="0" result="BackgroundImageFix"/>
<feColorMatrix in="SourceAlpha" type="matrix" values="0 0 0 0 0 0 0 0 0 0 0 0 0 0 0 0 0 0 127 0"/>
<feOffset dy="4"/>
<feGaussianBlur stdDeviation="2"/>
<feColorMatrix type="matrix" values="0 0 0 0 0 0 0 0 0 0 0 0 0 0 0 0 0 0 0.25 0"/>
<feBlend mode="normal" in2="BackgroundImageFix" result="effect1_dropShadow"/>
<feBlend mode="normal" in="SourceGraphic" in2="effect1_dropShadow" result="shape"/>
</filter>
<filter id="filter3_d" x="212.737" y="147.223" width="14.2853" height="10.0722" filterUnits="userSpaceOnUse" color-interpolation-filters="sRGB">
<feFlood flood-opacity="0" result="BackgroundImageFix"/>
<feColorMatrix in="SourceAlpha" type="matrix" values="0 0 0 0 0 0 0 0 0 0 0 0 0 0 0 0 0 0 127 0"/>
<feOffset dy="1"/>
<feGaussianBlur stdDeviation="1"/>
<feColorMatrix type="matrix" values="0 0 0 0 0 0 0 0 0 0 0 0 0 0 0 0 0 0 0.1 0"/>
<feBlend mode="normal" in2="BackgroundImageFix" result="effect1_dropShadow"/>
<feBlend mode="normal" in="SourceGraphic" in2="effect1_dropShadow" result="shape"/>
</filter>
<clipPath id="clip0">
<rect width="966" height="284" fill="white"/>
</clipPath>
</defs>
</svg>
