<svg width="875" height="284" viewBox="0 0 875 284" fill="none" xmlns="http://www.w3.org/2000/svg">
<g clip-path="url(#clip0)">
<ellipse cx="178.671" cy="139.159" rx="110" ry="110" transform="rotate(-25 178.671 139.159)" stroke="black" stroke-width="2"/>
<g filter="url(#filter0_d)">
<path d="M108.751 120.079C165.47 113.733 174.38 131.637 175.708 146.754C144.475 158.682 134.256 143.371 108.751 120.079Z" fill="#6FCF97"/>
<path d="M171.042 229.737C162.058 221.859 143.889 194.22 175.296 146.481C171.894 156.501 156.095 189.112 173.213 228.927L172.097 229.052L171.042 229.737Z" fill="#6FCF97"/>
<path d="M173.639 147.917C192.015 123.852 221.696 142.54 232.111 154.918C201.342 171.34 184.736 161.911 173.639 147.917Z" fill="#8CC9CD"/>
<g filter="url(#filter1_d)">
<path d="M223.82 151.613C224.971 153.234 220.877 154.026 220.203 154.175C218.403 154.573 215.303 153.983 214.152 152.362C213 150.741 214.452 148.839 216.033 148.304C217.615 147.769 222.668 149.991 223.82 151.613Z" fill="#D5FCFF"/>
</g>
</g>
<circle cx="255.47" cy="178.182" r="5" transform="rotate(-5 255.47 178.182)" fill="black"/>
<circle cx="98.0417" cy="101.042" r="5" transform="rotate(-5 98.0417 101.042)" fill="black"/>
<path d="M113.167 73.2743L119.191 82.9142L124.094 79.8506C125.408 79.0295 126.241 77.8564 126.593 76.3313C126.945 74.8062 126.704 73.3756 125.869 72.0395C125.048 70.7255 123.871 69.8869 122.339 69.5238C120.807 69.1606 119.384 69.3896 118.07 70.2107L113.167 73.2743ZM124.293 96.9762L109.379 73.1083L111.511 70.6242L116.364 67.5916C118.407 66.3151 120.596 65.9606 122.931 66.5281C125.296 67.0928 127.12 68.4021 128.403 70.456C129.7 72.5319 130.083 74.7417 129.551 77.0852C129.016 79.4467 127.732 81.2622 125.7 82.5318L120.847 85.5644L126.219 94.1608L124.293 96.9762Z" fill="black"/>
<path d="M152.314 69.0963L154.891 66.8617L155.356 68.3535C155.96 70.2929 155.791 72.1593 154.85 73.9527C153.908 75.7461 152.468 76.9448 150.528 77.5489C148.589 78.1529 146.716 77.9861 144.91 77.0484C143.105 76.1107 141.9 74.6722 141.296 72.7328L135.11 52.873L137.687 50.6384L144.262 71.7476C144.647 72.896 145.343 73.7293 146.35 74.2476C147.389 74.783 148.506 74.8648 149.699 74.4931C150.743 74.1679 151.526 73.4606 152.045 72.3713C152.565 71.282 152.655 70.1903 152.314 69.0963Z" fill="black"/>
<path d="M167.142 63.3059C167.139 63.7355 167.305 64.1794 167.641 64.6375C168.26 65.4752 169.253 65.8988 170.62 65.9083C171.454 65.9141 172.191 65.724 172.831 65.3378L173.983 68.2951C172.963 68.8219 171.835 69.0809 170.598 69.0723C168.645 69.0587 166.918 68.3305 165.418 66.8877C164.41 65.8389 163.91 64.6375 163.92 63.2834C163.92 63.2313 163.92 63.1792 163.921 63.1271C163.938 60.6923 165.193 58.9757 167.687 57.9775L175.659 54.7714C175.668 53.5344 175.265 52.4964 174.45 51.6574C173.636 50.8053 172.604 50.3749 171.354 50.3662C170.26 50.3586 169.294 50.762 168.455 51.5764C167.642 52.3651 167.218 53.3647 167.184 54.5755L167.182 54.8489L164.047 56.2138L164.059 54.4951C164.072 52.6722 164.865 50.9329 166.439 49.2772C167.777 47.8802 169.462 47.1888 171.493 47.203C173.524 47.2172 175.251 47.9454 176.673 49.3877C178.096 50.8299 178.8 52.5667 178.785 54.5979L178.694 67.7616L175.559 69.1069L175.635 58.1892L169.191 60.7615C167.833 61.3901 167.15 62.2382 167.142 63.3059Z" fill="black"/>
<path d="M190.713 69.7575L194.006 55.6044C194.467 53.626 195.557 52.1016 197.277 51.0312C198.996 49.9608 200.845 49.6558 202.824 50.1162C204.802 50.5766 206.333 51.6681 207.416 53.3907C208.499 55.1133 208.81 56.9638 208.35 58.9422L205.366 71.7637L202.013 72.387L205.293 58.291C205.542 57.1056 205.363 56.0347 204.757 55.0781C204.131 54.0903 203.267 53.468 202.163 53.2112C201.022 52.9456 199.945 53.1227 198.932 53.7425C197.937 54.3399 197.31 55.1967 197.05 56.3127C197.044 56.338 197.04 56.3571 197.037 56.3697L194.066 69.1341L190.713 69.7575Z" fill="black"/>
<path d="M227.97 78.2893C227.97 78.2893 229.095 78.4509 231.346 78.7741L230.523 80.1021C229.453 81.8284 227.931 82.9229 225.959 83.3854C223.987 83.8479 222.138 83.544 220.412 82.4736C218.685 81.4033 217.585 79.8786 217.112 77.8997C216.638 75.9208 216.937 74.0682 218.007 72.3418L223.812 62.9797L221.753 61.7035L224.562 59.768L225.458 60.3238L228.968 54.6634L232.344 55.1482L228.114 61.9705L236.547 67.1989L233.738 69.1344L226.468 64.6265L220.694 73.9388C220.071 74.9927 219.897 76.0644 220.171 77.1538C220.458 78.2969 221.083 79.167 222.046 79.7639C223.031 80.3746 224.102 80.5488 225.261 80.2866C226.394 80.0396 227.298 79.3738 227.97 78.2893Z" fill="black"/>
<path d="M230.781 96.5439L251.588 78.7729L254.657 80.2612L257.853 84.0038C259.181 85.5583 259.766 87.336 259.609 89.337C259.451 91.338 258.689 92.9219 257.323 94.0889C255.778 95.4081 254.014 95.9989 252.03 95.8612L251.865 95.8482C252 96.5885 252.032 97.3667 251.958 98.1829C251.76 100.578 250.731 102.57 248.869 104.16C247.028 105.733 244.895 106.433 242.47 106.261C240.072 106.1 238.091 105.103 236.527 103.272L230.781 96.5439ZM235.186 96.8906L238.941 101.287C239.947 102.465 241.236 103.111 242.806 103.226C244.376 103.34 245.75 102.894 246.929 101.888C248.127 100.864 248.787 99.5726 248.91 98.0123C249.033 96.4519 248.591 95.0826 247.585 93.9043L247.09 93.3251L243.83 89.5082L235.186 96.8906ZM249.428 91.251C250.301 92.2525 251.206 92.7809 252.143 92.8362C253.293 92.899 254.298 92.5625 255.16 91.8268C255.209 91.7845 255.264 91.738 255.323 91.6873C256.036 91.0784 256.409 90.2119 256.442 89.0878C256.498 87.91 256.163 86.877 255.439 85.9888L252.281 82.2907L246.206 87.4787L249.428 91.251Z" fill="black"/>
<path d="M254.25 117.812C253.123 118.218 252.327 118.968 251.863 120.062C251.391 121.173 251.347 122.261 251.731 123.327C252.101 124.356 252.814 125.124 253.868 125.63C254.889 126.121 255.973 126.173 257.121 125.787L263.774 123.392C264.904 122.958 265.706 122.226 266.18 121.198C266.67 120.136 266.703 119.017 266.279 117.84C265.909 116.811 265.199 116.05 264.149 115.556C263.116 115.07 262.07 115.01 261.012 115.377L260.902 115.417L254.25 117.812ZM259.899 112.457C261.81 111.769 263.682 111.856 265.515 112.719C267.347 113.581 268.608 114.968 269.296 116.879C269.984 118.79 269.899 120.668 269.041 122.513C268.183 124.358 266.798 125.625 264.887 126.313L258.125 128.748C256.213 129.436 254.339 129.342 252.502 128.468C250.665 127.593 249.402 126.2 248.714 124.289C248.026 122.378 248.113 120.506 248.976 118.673C249.838 116.84 251.225 115.58 253.136 114.892L259.899 112.457Z" fill="black"/>
<path d="M270.909 140.851L272.232 143.646L263.583 149.605L272.041 155.812L270.631 158.564L261.209 151.521L251.492 158.283L250.17 155.41L258.779 149.529L250.359 143.38L251.77 140.57L261.23 147.653L270.909 140.851Z" fill="black"/>
<path d="M379.965 113.01V141.428H394.418C398.292 141.428 401.612 140.044 404.379 137.277C407.146 134.51 408.529 131.158 408.529 127.219C408.529 123.345 407.146 120.008 404.379 117.209C401.612 114.41 398.292 113.01 394.418 113.01H379.965ZM372.152 178V107.639L379.965 105.197H394.271C400.294 105.197 405.404 107.346 409.604 111.643C413.868 115.972 416 121.164 416 127.219C416 133.339 413.884 138.531 409.652 142.795C405.388 147.092 400.261 149.24 394.271 149.24H379.965V174.582L372.152 178ZM460.824 159.152L468.637 155.734V159.641C468.637 164.719 466.846 169.048 463.266 172.629C459.685 176.21 455.355 178 450.277 178C445.199 178 440.854 176.21 437.24 172.629C433.627 169.048 431.82 164.719 431.82 159.641V107.639L439.633 104.221V159.494C439.698 162.521 440.74 165.028 442.758 167.014C444.841 169.064 447.445 170.09 450.57 170.09C453.305 170.09 455.697 168.983 457.748 166.77C459.799 164.556 460.824 162.017 460.824 159.152ZM495.834 163.645C495.834 164.719 496.257 165.826 497.104 166.965C498.666 169.048 501.156 170.09 504.574 170.09C506.658 170.09 508.497 169.602 510.092 168.625L513.021 175.998C510.482 177.333 507.667 178 504.574 178C499.691 178 495.362 176.21 491.586 172.629C489.047 170.025 487.777 167.03 487.777 163.645C487.777 163.514 487.777 163.384 487.777 163.254C487.777 157.167 490.886 152.854 497.104 150.314L516.977 142.16C516.977 139.068 515.951 136.48 513.9 134.396C511.85 132.281 509.262 131.223 506.137 131.223C503.402 131.223 500.993 132.248 498.91 134.299C496.892 136.285 495.85 138.791 495.785 141.818V142.502L487.973 145.969V141.672C487.973 137.115 489.926 132.753 493.832 128.586C497.152 125.07 501.352 123.312 506.43 123.312C511.508 123.312 515.837 125.103 519.418 128.684C522.999 132.264 524.789 136.594 524.789 141.672V174.582L516.977 178V150.705L500.912 157.248C497.527 158.843 495.834 160.975 495.834 163.645ZM544.125 178V141.672C544.125 136.594 545.915 132.264 549.496 128.684C553.077 125.103 557.406 123.312 562.484 123.312C567.562 123.312 571.908 125.103 575.521 128.684C579.135 132.264 580.941 136.594 580.941 141.672V174.582L573.129 178V141.818C573.064 138.791 572.022 136.285 570.004 134.299C567.921 132.248 565.463 131.223 562.631 131.223C559.701 131.223 557.178 132.264 555.062 134.348C552.979 136.366 551.938 138.807 551.938 141.672C551.938 141.737 551.938 141.786 551.938 141.818V174.582L544.125 178ZM629.281 159.152C629.281 159.152 631.885 158.013 637.094 155.734V159.641C637.094 164.719 635.303 169.048 631.723 172.629C628.142 176.21 623.812 178 618.734 178C613.656 178 609.311 176.21 605.697 172.629C602.084 169.048 600.277 164.719 600.277 159.641V132.102H594.223L597.641 124.289H600.277V107.639L608.09 104.221V124.289H632.895L629.477 132.102H608.09V159.494C608.155 162.554 609.197 165.061 611.215 167.014C613.331 169.064 615.805 170.09 618.637 170.09C621.534 170.09 624.04 169.048 626.156 166.965C628.24 164.947 629.281 162.342 629.281 159.152ZM652.914 177.023V108.615L660.727 105.197H673.031C678.142 105.197 682.471 106.971 686.02 110.52C689.568 114.068 691.342 118.088 691.342 122.58C691.342 127.658 689.6 131.971 686.117 135.52L685.824 135.812C687.452 136.757 688.982 137.961 690.414 139.426C694.646 143.69 696.762 148.882 696.762 155.002C696.762 161.057 694.63 166.249 690.365 170.578C686.166 174.875 681.055 177.023 675.033 177.023H652.914ZM660.727 169.211H675.18C679.053 169.211 682.374 167.811 685.141 165.012C687.908 162.212 689.291 158.876 689.291 155.002C689.291 151.063 687.908 147.71 685.141 144.943C682.374 142.176 679.053 140.793 675.18 140.793H673.275H660.727V169.211ZM673.129 132.98C676.449 132.948 678.923 132.085 680.551 130.393C682.536 128.309 683.529 125.852 683.529 123.02C683.529 122.857 683.529 122.678 683.529 122.482C683.529 120.139 682.488 118.023 680.404 116.135C678.256 114.117 675.749 113.075 672.885 113.01H660.727V132.98H673.129ZM720.395 159.494C720.395 162.489 721.485 164.995 723.666 167.014C725.88 169.064 728.402 170.09 731.234 170.09C733.969 170.09 736.378 169.064 738.461 167.014C740.479 165.028 741.521 162.521 741.586 159.494V141.818C741.521 138.791 740.479 136.285 738.461 134.299C736.378 132.248 733.773 131.223 730.648 131.223C727.914 131.223 725.521 132.248 723.471 134.299C721.452 136.317 720.427 138.726 720.395 141.525V141.818V159.494ZM712.582 141.672C712.582 136.594 714.372 132.264 717.953 128.684C721.534 125.103 725.863 123.312 730.941 123.312C736.02 123.312 740.365 125.103 743.979 128.684C747.592 132.264 749.398 136.594 749.398 141.672V159.641C749.398 164.719 747.592 169.048 743.979 172.629C740.365 176.21 736.02 178 730.941 178C725.863 178 721.534 176.21 717.953 172.629C714.372 169.048 712.582 164.719 712.582 159.641V141.672ZM764.975 126.73L771.908 123.312L787.143 144.699L802.328 123.312L809.262 126.73L792.025 150.559L809.311 174.582L802.182 178L787.143 156.711L772.104 178L765.023 174.582L782.357 150.656L764.975 126.73Z" fill="black"/>
</g>
<defs>
<filter id="filter0_d" x="104.708" y="108.128" width="131.403" height="129.608" filterUnits="userSpaceOnUse" color-interpolation-filters="sRGB">
<feFlood flood-opacity="0" result="BackgroundImageFix"/>
<feColorMatrix in="SourceAlpha" type="matrix" values="0 0 0 0 0 0 0 0 0 0 0 0 0 0 0 0 0 0 127 0"/>
<feOffset dy="4"/>
<feGaussianBlur stdDeviation="2"/>
<feColorMatrix type="matrix" values="0 0 0 0 0 0 0 0 0 0 0 0 0 0 0 0 0 0 0.25 0"/>
<feBlend mode="normal" in2="BackgroundImageFix" result="effect1_dropShadow"/>
<feBlend mode="normal" in="SourceGraphic" in2="effect1_dropShadow" result="shape"/>
</filter>
<filter id="filter1_d" x="211.737" y="147.223" width="14.2853" height="10.0722" filterUnits="userSpaceOnUse" color-interpolation-filters="sRGB">
<feFlood flood-opacity="0" result="BackgroundImageFix"/>
<feColorMatrix in="SourceAlpha" type="matrix" values="0 0 0 0 0 0 0 0 0 0 0 0 0 0 0 0 0 0 127 0"/>
<feOffset dy="1"/>
<feGaussianBlur stdDeviation="1"/>
<feColorMatrix type="matrix" values="0 0 0 0 0 0 0 0 0 0 0 0 0 0 0 0 0 0 0.1 0"/>
<feBlend mode="normal" in2="BackgroundImageFix" result="effect1_dropShadow"/>
<feBlend mode="normal" in="SourceGraphic" in2="effect1_dropShadow" result="shape"/>
</filter>
<clipPath id="clip0">
<rect width="875" height="284" fill="white"/>
</clipPath>
</defs>
</svg>
